<?xml version="1.0" standalone="no"?>
<!DOCTYPE svg PUBLIC "-//W3C//DTD SVG 20010904//EN"
 "http://www.w3.org/TR/2001/REC-SVG-20010904/DTD/svg10.dtd">
<svg version="1.0" xmlns="http://www.w3.org/2000/svg"
 width="500.000000pt" height="500.000000pt" viewBox="0 0 500.000000 500.000000"
 preserveAspectRatio="xMidYMid meet">
<metadata>
Created by potrace 1.11, written by Peter Selinger 2001-2013
</metadata>
<g transform="translate(0.000000,500.000000) scale(0.100000,-0.100000)"
fill="#000000" stroke="none">
<path d="M0 4622 c0 -241 0 -244 36 -291 2 -2 15 11 29 28 15 17 40 39 56 48
16 10 32 25 35 35 7 24 35 23 41 -2 3 -11 12 -20 20 -20 8 0 12 -4 9 -9 -3 -5
5 -20 19 -32 13 -13 25 -32 25 -41 0 -9 8 -22 18 -27 9 -6 13 -11 9 -11 -4 0
-3 -8 2 -18 5 -10 12 -36 15 -57 3 -22 11 -71 17 -110 26 -171 25 -158 20
-257 -1 -30 -40 -78 -64 -78 -41 0 -74 -124 -42 -160 8 -9 17 -47 21 -85 4
-39 13 -83 22 -100 8 -16 18 -37 23 -46 11 -23 -8 -100 -29 -115 -15 -11 -15
-15 9 -47 23 -33 152 -147 207 -184 21 -14 24 -14 46 8 13 13 32 30 41 38 15
12 14 16 -15 46 -26 27 -33 43 -37 93 -5 58 -4 62 26 93 35 35 30 49 -21 49
-23 0 -28 5 -34 35 -3 19 -3 48 1 63 9 34 9 89 -1 111 -9 20 -5 63 8 78 12 15
6 98 -8 98 -6 0 -19 8 -29 19 -19 18 -18 19 3 57 16 28 22 55 22 101 0 35 5
81 11 103 16 58 26 145 21 172 -3 14 -14 26 -27 29 -23 6 -45 42 -45 72 1 23
31 58 58 66 12 4 22 12 22 17 0 17 83 69 109 69 19 0 32 -9 45 -31 17 -29 18
-50 11 -307 -5 -211 -11 -285 -22 -309 -13 -28 -13 -35 1 -62 25 -48 22 -167
-6 -211 -17 -26 -21 -47 -19 -85 1 -27 -2 -63 -8 -79 -10 -25 -8 -31 13 -52
44 -45 42 -148 -5 -195 l-21 -21 24 -25 c21 -22 23 -34 24 -126 1 -93 -1 -103
-22 -124 -31 -30 -38 -27 -174 92 -58 50 -139 118 -180 151 -41 33 -97 78
-124 100 -27 21 -79 62 -115 91 l-66 52 -3 -522 -2 -522 22 -18 c86 -69 104
-84 123 -102 12 -11 36 -30 53 -42 18 -13 45 -32 61 -44 l29 -21 30 22 c28 21
31 21 63 6 49 -23 119 -94 119 -119 0 -12 11 -30 25 -42 18 -14 27 -33 31 -70
7 -51 27 -85 51 -85 7 0 14 6 14 13 5 44 7 57 13 81 4 15 12 26 19 23 14 -5
17 -80 5 -116 -5 -14 -4 -29 3 -37 8 -10 6 -27 -7 -66 -9 -29 -25 -91 -34
-138 -21 -101 -53 -222 -81 -299 -11 -31 -29 -101 -39 -156 -30 -158 -71 -349
-77 -358 -2 -4 -13 -5 -23 -2 -15 5 -17 2 -13 -14 3 -14 -1 -23 -12 -27 -16
-6 -157 26 -294 67 -35 10 -67 19 -72 19 -5 0 -9 -26 -9 -58 l0 -57 73 -23
c39 -12 101 -33 137 -47 36 -13 91 -32 124 -41 l58 -17 -5 -45 c-2 -24 -9 -48
-14 -53 -5 -5 -40 2 -83 15 -41 13 -102 32 -135 41 -33 9 -70 21 -83 26 -13 5
-34 9 -47 9 -24 0 -25 -2 -25 -80 0 -73 9 -97 25 -70 11 17 88 11 122 -10 33
-20 59 -56 46 -63 -5 -2 -37 -5 -73 -6 -35 -2 -68 -5 -73 -8 -11 -7 -2 -72 15
-108 l11 -25 1694 0 1693 0 0 136 c0 121 13 222 44 349 8 31 28 66 51 91 15
16 52 67 83 113 40 60 65 87 90 98 18 8 95 21 170 29 75 8 153 19 172 25 30 9
59 13 137 18 10 1 12 23 8 89 -3 48 -7 265 -10 482 -3 217 -6 481 -8 587 -2
178 -8 224 -25 197 -6 -10 -43 -19 -107 -27 -11 -1 -25 -13 -32 -27 -11 -24
-12 -24 -11 12 1 34 3 36 32 37 94 1 113 9 145 61 25 42 26 50 6 50 -8 0 -15
-4 -15 -10 0 -17 -60 -42 -114 -47 -42 -4 -57 -11 -83 -39 -27 -28 -33 -42
-34 -81 -1 -27 -1 -52 0 -57 1 -5 -5 -32 -14 -60 -29 -90 -31 -100 -34 -156
-3 -63 -18 -85 -60 -88 -24 -2 -39 6 -68 36 -21 22 -57 49 -80 61 -52 26 -70
55 -51 79 20 25 31 32 56 32 26 0 28 9 8 35 -13 18 -18 19 -62 7 -67 -18 -74
-26 -74 -89 0 -56 -16 -77 -43 -55 -7 6 -19 7 -26 3 -7 -5 -26 -4 -42 2 -23 9
-40 7 -93 -12 -115 -41 -176 -14 -185 82 -1 4 -8 7 -16 7 -8 0 -20 10 -26 22
-23 42 -45 56 -40 26 3 -23 -45 20 -68 59 -9 15 -12 16 -20 4 -13 -21 -44 5
-36 30 3 9 2 20 -3 23 -6 3 -12 -3 -15 -14 -3 -11 -13 -20 -23 -20 -9 0 -14 3
-11 7 13 12 -27 32 -45 22 -14 -7 -18 -6 -18 6 0 8 5 15 10 15 6 0 10 5 10 10
0 6 -11 10 -25 10 -25 0 -65 -31 -65 -50 0 -5 -7 -10 -15 -10 -15 0 -21 -31
-8 -44 5 -4 8 -21 8 -37 0 -24 -4 -29 -17 -25 -10 2 -18 0 -18 -5 0 -5 6 -9
13 -9 8 0 7 -3 -3 -9 -15 -11 -33 -4 -25 8 2 5 -6 9 -20 9 -24 0 -55 22 -55
40 0 6 -6 12 -13 15 -43 16 -124 272 -129 407 -3 64 -1 71 26 99 29 31 30 31
50 12 42 -37 65 -44 92 -26 40 26 74 109 74 181 0 150 73 254 179 254 38 0 81
-37 85 -73 3 -28 3 -28 -18 -9 -32 29 -81 45 -115 37 -44 -10 -79 -60 -96
-140 -17 -82 -4 -138 33 -143 26 -4 28 5 6 29 -24 27 -29 99 -10 136 19 38 71
83 96 83 36 0 50 -11 40 -30 -12 -23 -4 -47 18 -54 10 -2 -8 -4 -38 -4 -65 1
-97 -13 -106 -47 -8 -34 3 -62 37 -85 17 -13 29 -31 29 -43 0 -29 11 -44 35
-49 16 -2 21 4 25 37 7 47 36 95 57 95 8 0 28 -8 43 -17 32 -18 44 -60 34
-112 -6 -28 -2 -37 24 -61 45 -40 52 -41 101 -3 24 18 47 33 51 33 4 0 12 11
20 24 7 14 23 27 37 31 13 3 21 10 18 14 -3 5 2 17 11 25 16 16 40 20 104 17
19 -1 45 -1 58 -1 50 2 58 1 77 -2 16 -2 19 2 17 20 -2 15 2 22 12 22 9 0 16
9 16 20 0 24 34 95 50 105 8 5 8 11 1 19 -16 19 49 82 97 95 32 9 41 8 64 -9
15 -11 31 -20 35 -20 4 0 46 -20 93 -44 47 -24 102 -49 122 -55 21 -7 42 -20
48 -29 5 -9 10 -14 10 -9 0 16 42 -36 63 -81 13 -26 29 -46 36 -44 6 1 20 -2
29 -7 19 -10 112 14 112 29 0 4 11 11 25 14 14 4 23 11 20 16 -3 5 16 25 42
44 27 20 53 40 60 46 22 18 23 -7 2 -34 -11 -14 -16 -26 -10 -26 21 0 53 62
58 116 l6 56 61 -6 c79 -9 268 -14 283 -9 8 3 12 60 13 196 1 106 3 218 5 249
5 67 -3 76 -65 79 -43 1 -393 1 -454 -1 -22 0 -40 10 -71 42 -47 49 -68 67
-166 139 -38 29 -69 55 -69 60 0 4 -17 13 -37 20 -21 6 -42 15 -48 19 -21 15
-115 41 -250 70 -123 26 -158 29 -289 28 -87 -1 -141 -5 -130 -10 12 -5 1 -6
-26 -3 -24 3 -49 10 -56 16 -9 8 -11 70 -8 252 6 390 14 446 65 472 19 10 83
19 183 25 85 6 219 17 297 25 78 8 193 18 255 22 98 5 117 4 140 -12 22 -14
30 -15 53 -4 14 7 33 14 41 17 15 4 185 13 245 13 17 0 68 0 115 0 47 0 117 2
155 5 39 3 79 5 90 5 59 2 65 7 65 59 l0 50 -1400 0 -1401 0 6 -127 c8 -151 8
-151 38 -162 51 -19 56 -54 63 -377 5 -232 10 -303 20 -315 8 -9 12 -18 10
-20 -3 -3 7 -4 22 -3 23 1 28 6 34 40 4 21 7 152 7 289 -1 247 6 317 36 375 8
15 25 30 37 34 13 3 100 9 193 12 94 3 213 10 265 16 193 20 219 21 237 7 39
-33 42 -67 44 -384 1 -253 3 -307 15 -312 8 -3 12 -9 9 -14 -7 -10 -123 -99
-130 -99 -3 0 -14 -9 -25 -20 -26 -26 -46 -25 -76 5 -14 14 -27 25 -31 25 -3
0 2 -11 11 -25 15 -23 15 -25 0 -25 -10 0 -26 8 -37 18 -20 16 -20 16 -12 -3
19 -49 18 -63 -6 -67 -13 -2 -26 -12 -29 -23 -12 -46 -41 -75 -76 -75 -24 0
-32 -4 -28 -14 3 -8 1 -17 -5 -21 -6 -3 -11 -23 -11 -43 0 -20 -7 -46 -15 -56
-8 -11 -15 -35 -15 -55 0 -19 -7 -42 -15 -51 -23 -26 -29 -74 -11 -92 19 -19
6 -76 -24 -103 -23 -21 -8 -31 -258 172 -90 73 -166 133 -168 133 -3 0 -1 -8
4 -17 5 -10 12 -37 16 -61 7 -46 20 -62 105 -121 53 -38 74 -72 88 -139 l8
-44 27 21 c31 25 53 26 102 6 41 -17 45 -34 21 -105 -34 -104 -64 -207 -70
-240 -13 -68 -14 -70 -55 -70 -41 0 -69 -20 -95 -70 -22 -42 -105 -94 -105
-66 0 8 -7 16 -15 20 -8 3 -15 11 -15 17 0 8 4 8 15 -1 13 -10 15 -9 15 9 0
11 4 21 10 21 15 0 7 43 -10 58 -13 10 -13 11 3 6 13 -5 17 -1 17 15 0 15 -6
21 -21 21 -11 0 -28 7 -37 16 -15 15 -14 16 8 9 56 -17 56 -17 42 -8 -13 10
-6 43 9 43 5 0 9 7 9 16 0 10 -6 14 -14 11 -8 -3 -16 -1 -18 5 -3 8 -11 7 -27
-1 -13 -7 -34 -10 -47 -7 -24 6 -33 -7 -14 -19 17 -11 11 -25 -11 -25 -11 0
-17 -4 -14 -10 9 -14 -7 -12 -27 4 -21 16 -24 38 -4 30 8 -3 17 -1 21 5 3 7
-2 11 -14 11 -12 0 -21 5 -21 10 0 6 16 10 35 10 22 0 38 6 41 15 4 8 15 15
26 15 14 0 18 6 16 22 -2 16 4 24 22 29 21 6 22 7 5 9 -49 6 -85 4 -85 -2 0
-5 -4 -8 -10 -8 -5 0 -10 9 -10 19 0 11 -4 23 -10 26 -15 9 -12 48 5 71 17 22
19 44 5 44 -5 0 -10 -8 -11 -17 0 -14 -2 -13 -9 5 -10 23 -44 30 -56 10 -4 -6
-8 -33 -9 -60 -1 -26 -3 -50 -6 -52 -2 -2 -4 -60 -3 -128 0 -68 -3 -125 -7
-128 -11 -7 -16 -212 -6 -228 5 -7 2 -14 -8 -18 -23 -9 -108 4 -116 18 -8 12
-2 242 10 428 10 162 5 199 -28 212 -51 20 -79 20 -89 1 -5 -10 -13 -135 -16
-278 -7 -261 -13 -376 -22 -407 -7 -23 -20 -26 -152 -39 -64 -6 -178 -26 -253
-44 -75 -18 -151 -35 -170 -37 -31 -3 -34 -1 -31 22 16 155 15 170 -6 170 -21
0 -86 -34 -110 -57 -33 -32 -109 -40 -122 -13 -30 62 -35 108 -27 255 5 83 9
161 9 175 0 72 10 95 61 143 l51 47 -32 12 c-18 7 -32 18 -32 24 0 7 -7 14
-15 18 -9 3 -15 18 -15 40 0 19 -5 38 -10 41 -6 3 -7 17 -4 29 4 18 -1 28 -17
40 -32 22 -36 21 -43 -15 -3 -17 -22 -47 -41 -66 -19 -19 -35 -42 -35 -51 -1
-26 -27 -54 -46 -50 -35 6 -46 87 -51 348 -4 202 -2 253 11 289 9 27 12 51 7
60 -18 34 -20 105 -13 367 6 247 9 274 26 293 11 12 26 21 35 21 25 0 65 -49
77 -94 l10 -41 13 50 c7 28 20 58 28 67 20 22 72 32 117 24 40 -8 172 -110
226 -175 86 -104 148 -156 418 -356 101 -75 248 -189 325 -254 78 -65 153
-124 167 -131 33 -16 27 -11 -120 110 -69 56 -143 118 -165 137 -87 76 -716
612 -784 668 -13 11 -50 43 -81 70 -105 93 -183 160 -228 195 -25 19 -63 52
-85 72 l-40 37 -338 0 -339 1 0 -238z m832 -1562 c32 0 41 -62 33 -214 -4 -78
-8 -184 -10 -236 -2 -52 -4 -105 -4 -117 -1 -11 -8 -24 -16 -27 -8 -3 -15 -13
-15 -23 0 -14 -5 -11 -19 10 -20 31 -23 134 -6 250 7 53 6 57 -10 51 -34 -13
-45 21 -45 143 0 131 15 179 53 169 12 -3 30 -6 39 -6z m1335 -92 c-3 -8 -6
-5 -6 6 -1 11 2 17 5 13 3 -3 4 -12 1 -19z m93 -42 c0 -3 -4 -8 -10 -11 -5 -3
-10 -1 -10 4 0 6 5 11 10 11 6 0 10 -2 10 -4z m780 -16 c0 -11 -4 -20 -9 -20
-5 0 -7 9 -4 20 3 11 7 20 9 20 2 0 4 -9 4 -20z m-720 -90 c0 -5 -4 -10 -10
-10 -5 0 -10 5 -10 10 0 6 5 10 10 10 6 0 10 -4 10 -10z m-51 -79 c-15 -5 -22
6 -14 19 6 9 10 9 16 -1 5 -8 4 -15 -2 -18z m-56 13 c3 -3 3 -12 0 -20 -4 -10
-9 -11 -23 -2 -10 7 -16 16 -14 20 6 9 28 11 37 2z m24 -60 c-3 -3 -12 -4 -19
-1 -8 3 -5 6 6 6 11 1 17 -2 13 -5z m19 -41 c-11 -11 -19 6 -11 24 8 17 8 17
12 0 3 -10 2 -21 -1 -24z m-26 -2 c0 -11 -4 -23 -10 -26 -6 -4 -10 5 -10 19 0
14 5 26 10 26 6 0 10 -9 10 -19z m65 -61 c3 -5 0 -10 -9 -10 -8 0 -23 -3 -33
-6 -16 -6 -16 -5 2 9 24 19 32 21 40 7z m-1438 -297 c24 -36 13 -228 -13 -248
-41 -31 -61 -14 -75 61 -29 158 28 279 88 187z m3278 17 c4 -6 12 -7 18 -4 7
4 4 -2 -6 -12 -15 -16 -19 -17 -27 -4 -5 8 -10 10 -10 4 0 -7 -9 -14 -20 -17
-25 -6 -27 18 -2 32 22 13 39 14 47 1z m-3470 -85 c6 -52 4 -70 -9 -90 -21
-33 -32 -25 -41 26 -11 63 2 129 25 129 15 0 20 -11 25 -65z m3389 50 c-3 -8
1 -24 10 -37 20 -28 21 -44 1 -28 -8 7 -12 16 -9 21 3 5 -2 9 -11 9 -12 0 -15
5 -11 16 3 9 6 20 6 25 0 5 4 9 10 9 5 0 7 -7 4 -15z m76 -48 c0 -5 -4 -5 -10
-2 -5 3 -10 14 -10 23 0 15 2 15 10 2 5 -8 10 -19 10 -23z m-110 11 c0 -5 -6
-15 -13 -22 -10 -10 -15 -10 -24 -1 -7 8 -8 16 -2 22 12 12 39 13 39 1z m-35
-48 c3 -5 1 -10 -4 -10 -6 0 -11 5 -11 10 0 6 2 10 4 10 3 0 8 -4 11 -10z m38
-17 c-15 -23 -18 -24 -21 -9 -2 10 2 22 10 27 24 16 29 9 11 -18z m44 -33
c-11 -16 -17 -18 -22 -9 -5 7 -1 18 10 25 25 18 31 10 12 -16z m-67 -13 c0 -5
-4 -5 -10 -2 -5 3 -10 14 -10 23 0 15 2 15 10 2 5 -8 10 -19 10 -23z m79 -55
c0 -14 -2 -14 -6 -2 -4 8 -13 21 -22 28 -14 11 -13 11 7 2 12 -6 22 -18 21
-28z m-489 -135 c10 -16 9 -18 -7 -14 -10 3 -44 13 -77 22 -54 15 -65 26 -31
31 8 1 13 -2 9 -7 -9 -15 23 -10 36 6 10 13 15 12 35 -3 13 -9 28 -25 35 -35z"/>
<path d="M857 4853 c-12 -11 150 -176 243 -248 36 -27 71 -56 78 -62 35 -33
50 -1 58 125 6 90 5 104 -15 146 l-23 46 -167 -1 c-93 0 -171 -2 -174 -6z"/>
<path d="M4929 4456 c-2 -3 -48 -7 -102 -9 -139 -7 -136 -20 3 -16 63 2 129 0
145 -4 l30 -8 -24 20 c-22 20 -42 26 -52 17z"/>
<path d="M4498 4421 c-94 -10 -92 -4 -90 -268 0 -125 1 -249 1 -275 1 -36 6
-50 20 -58 32 -17 50 -1 67 61 17 61 28 69 63 47 22 -14 60 -3 44 13 -7 7 -8
22 -2 42 13 45 12 47 -20 47 -48 0 -58 23 -32 77 26 53 21 78 -19 91 -16 6
-36 24 -44 40 -14 26 -13 35 5 95 11 37 21 67 22 67 1 0 20 7 42 15 42 15 35
16 -57 6z"/>
<path d="M4638 4423 c12 -2 32 -2 45 0 12 2 2 4 -23 4 -25 0 -35 -2 -22 -4z"/>
<path d="M4850 4050 c-33 -17 -49 -18 -89 -5 -10 3 -24 -1 -31 -10 -10 -12
-10 -15 4 -15 9 0 16 -7 16 -15 0 -8 4 -15 8 -15 5 0 9 -7 9 -15 0 -8 -7 -15
-14 -15 -8 0 -13 -8 -11 -17 3 -15 17 -18 97 -20 52 -2 99 -8 106 -13 9 -8 14
-6 19 6 16 42 -5 149 -28 141 -6 -2 -20 -1 -31 3 -13 5 -33 1 -55 -10z"/>
<path d="M2332 3750 c-26 -16 -32 -26 -32 -56 0 -28 8 -43 35 -69 42 -39 77
-52 73 -27 -1 9 0 22 4 27 11 17 20 122 12 127 -29 17 -63 16 -92 -2z"/>
<path d="M37 3664 c-4 -4 -7 -14 -7 -23 0 -11 3 -12 11 -4 6 6 10 16 7 23 -2
6 -7 8 -11 4z"/>
<path d="M2625 3422 c3 -3 0 -11 -6 -19 -6 -7 -7 -13 -3 -13 5 0 14 8 21 18 9
15 8 19 -3 19 -8 0 -12 -3 -9 -5z"/>
<path d="M2660 3396 c0 -2 7 -7 16 -10 8 -3 12 -2 9 4 -6 10 -25 14 -25 6z"/>
<path d="M2216 3294 c-11 -28 -6 -54 10 -54 29 0 52 19 52 45 0 21 -5 25 -28
25 -16 0 -30 -7 -34 -16z"/>
<path d="M2336 3279 c5 -9 2 -11 -9 -6 -9 3 -21 -1 -29 -10 -11 -14 -11 -16 4
-10 9 3 22 -1 28 -9 7 -8 21 -14 32 -14 29 0 19 54 -11 58 -17 3 -21 0 -15 -9z"/>
<path d="M2267 3079 c7 -7 15 -10 18 -7 3 3 -2 9 -12 12 -14 6 -15 5 -6 -5z"/>
<path d="M2320 3055 c0 -8 7 -15 15 -15 8 0 15 7 15 15 0 8 -7 15 -15 15 -8 0
-15 -7 -15 -15z"/>
<path d="M2326 3003 c-4 -4 -19 -8 -34 -9 -49 -3 -52 -4 -52 -21 0 -11 3 -14
8 -7 9 13 51 12 76 -2 14 -9 16 -15 9 -29 -5 -9 -14 -18 -18 -18 -5 -1 -10
-13 -11 -25 -2 -17 1 -22 11 -18 8 3 16 0 19 -7 2 -7 5 4 5 23 1 19 4 45 7 58
5 16 2 22 -10 22 -9 0 -16 4 -16 10 0 5 7 7 15 4 9 -4 15 0 15 10 0 17 -12 21
-24 9z"/>
<path d="M3660 2900 c0 -5 5 -10 11 -10 5 0 7 5 4 10 -3 6 -8 10 -11 10 -2 0
-4 -4 -4 -10z"/>
<path d="M2240 2860 c0 -5 5 -10 11 -10 5 0 7 5 4 10 -3 6 -8 10 -11 10 -2 0
-4 -4 -4 -10z"/>
<path d="M4404 2698 c-15 -24 -31 -177 -24 -220 5 -24 8 -106 8 -183 0 -172
-1 -171 123 -168 193 5 221 4 214 -8 -3 -4 2 -9 10 -13 9 -3 15 0 15 9 0 8 5
15 10 15 6 0 10 -5 10 -11 0 -5 5 -7 10 -4 16 10 70 15 70 7 0 -11 58 -34 77
-30 27 5 32 65 30 325 -2 271 2 258 -100 267 -203 18 -220 16 -237 -29 -11
-30 -44 -24 -35 6 4 11 2 19 -5 19 -6 0 -9 4 -6 9 9 14 -21 21 -94 21 -42 0
-72 -5 -76 -12z"/>
<path d="M2930 2672 c0 -4 5 -13 12 -20 9 -9 7 -16 -7 -32 -15 -16 -17 -25 -9
-38 13 -20 66 -22 72 -3 3 10 -1 12 -16 9 -17 -5 -20 -1 -20 28 0 19 4 37 9
40 18 10 9 24 -16 24 -14 0 -25 -4 -25 -8z"/>
<path d="M2819 2652 c5 -9 7 -28 4 -42 -5 -32 18 -65 41 -57 11 4 16 18 15 44
0 21 -3 32 -6 25 -4 -10 -9 -9 -24 4 -10 9 -19 23 -19 31 0 7 -5 13 -10 13 -7
0 -7 -6 -1 -18z m46 -81 c-10 -16 -25 -3 -25 22 0 20 1 20 16 5 9 -9 13 -21 9
-27z"/>
<path d="M3478 2643 c-31 -8 -20 -29 23 -43 22 -8 42 -16 44 -20 9 -14 -8 -51
-21 -46 -8 3 -11 0 -8 -9 4 -10 -1 -12 -18 -8 -21 6 -22 5 -8 -13 8 -10 18
-21 21 -24 3 -3 13 -25 23 -50 19 -48 65 -99 84 -92 7 2 12 -1 12 -7 0 -6 7
-11 16 -11 9 0 29 -8 45 -17 23 -13 33 -15 51 -5 36 18 87 19 99 2 8 -11 12
-12 16 -2 2 6 10 12 17 12 7 0 18 11 24 25 9 20 19 25 50 25 58 0 66 16 29 57
-61 67 -212 166 -280 183 -18 5 -58 18 -89 29 -55 20 -92 24 -130 14z m201
-121 c31 -4 35 -7 26 -22 -4 -7 -18 -4 -43 9 -20 11 -45 22 -55 25 -10 3 -15
10 -12 16 4 6 16 3 32 -7 14 -10 38 -19 52 -21z m74 -42 c7 0 20 -7 31 -15 18
-13 18 -14 0 -33 -40 -41 -91 -54 -116 -28 -60 63 -60 82 -2 77 26 -2 51 2 57
8 8 8 13 8 15 1 2 -5 9 -10 15 -10z"/>
<path d="M3029 2594 c-12 -26 -30 -49 -41 -52 -10 -2 -18 -9 -18 -14 0 -5 -4
-6 -10 -3 -13 8 -13 -5 3 -38 7 -15 18 -25 25 -22 7 3 11 1 8 -3 -2 -4 -1 -14
5 -22 7 -12 9 -12 9 3 0 17 1 17 16 2 11 -10 20 -13 26 -7 6 6 19 5 34 -2 27
-12 32 -26 9 -26 -9 0 -16 -10 -17 -27 -4 -69 -3 -93 4 -93 4 0 8 -7 8 -15 0
-17 2 -18 24 -9 17 7 22 34 6 34 -5 0 -10 5 -10 12 0 6 -6 19 -14 27 -12 14
-12 18 0 29 8 7 14 9 14 5 0 -5 9 -9 20 -10 14 -1 20 4 20 18 0 13 -6 19 -17
17 -10 -2 -18 3 -18 12 0 8 -5 24 -12 36 -13 22 -20 154 -9 172 10 17 -13 25
-31 10 -12 -9 -15 -9 -9 0 4 6 5 12 2 12 -2 0 -14 -21 -27 -46z m51 -32 c0 -9
-5 -24 -10 -32 -8 -13 -11 -13 -22 -1 -10 11 -10 14 0 18 6 3 12 14 12 24 0
11 5 17 10 14 6 -3 10 -14 10 -23z"/>
<path d="M3136 2454 c-9 -23 -7 -34 4 -34 6 0 10 9 10 19 0 11 6 22 13 24 7 4
6 6 -4 6 -9 1 -20 -6 -23 -15z"/>
<path d="M3166 2325 c-14 -10 -17 -18 -10 -25 15 -15 44 -1 44 21 0 23 -8 23
-34 4z"/>
<path d="M3215 2281 c-3 -5 -1 -12 5 -16 5 -3 10 1 10 9 0 18 -6 21 -15 7z"/>
<path d="M2750 2175 c0 -8 5 -15 10 -15 6 0 10 7 10 15 0 8 -4 15 -10 15 -5 0
-10 -7 -10 -15z"/>
<path d="M3160 2160 c0 -6 7 -10 15 -10 8 0 15 2 15 4 0 2 -7 6 -15 10 -8 3
-15 1 -15 -4z"/>
<path d="M4392 1858 c-14 -27 -22 -510 -9 -546 11 -28 65 -51 128 -54 27 -1
49 -5 49 -9 0 -3 24 -9 53 -13 28 -3 64 -9 80 -12 25 -6 27 -4 27 25 0 18 -5
31 -12 31 -9 0 -8 4 2 10 11 7 4 10 -25 10 -30 0 -44 5 -54 22 -9 15 -10 23
-3 26 18 6 -10 42 -31 42 -10 0 -27 -10 -38 -22 -15 -19 -18 -20 -19 -7 0 9
-6 19 -14 22 -22 9 -30 59 -12 69 9 5 16 16 16 25 0 22 17 5 22 -21 1 -11 8
-19 13 -19 6 0 15 -6 20 -13 7 -8 17 -9 33 -3 20 8 22 15 22 87 0 48 -6 94
-15 115 -20 48 -18 100 5 167 10 30 17 57 14 59 -4 4 -191 30 -225 31 -9 0
-21 -10 -27 -22z m188 -173 c14 -17 7 -132 -9 -148 -5 -5 -18 -4 -31 3 -21 11
-22 17 -18 75 3 35 9 68 12 74 10 16 31 14 46 -4z"/>
<path d="M0 966 c0 -53 1 -55 33 -64 169 -51 178 -41 46 58 l-79 60 0 -54z"/>
<path d="M3824 866 c-12 -8 -27 -36 -34 -61 -7 -25 -16 -48 -21 -50 -17 -11
-37 -65 -27 -71 6 -4 48 -9 94 -12 61 -3 84 -1 84 7 0 7 23 46 51 88 66 98 62
107 -47 111 -57 2 -85 -1 -100 -12z"/>
<path d="M4115 632 c-118 -2 -131 -5 -153 -25 -34 -32 -175 -36 -287 -9 -83
20 -110 16 -97 -16 9 -26 29 -42 49 -42 11 0 24 -5 30 -11 6 -6 62 -14 125
-16 62 -3 119 -9 127 -13 16 -9 20 -25 21 -90 0 -85 0 -92 -7 -104 -4 -6 -9
-48 -10 -93 l-2 -83 172 0 172 0 0 158 c1 197 3 202 88 202 71 0 109 -8 101
-21 -3 -5 4 -9 16 -9 13 0 19 4 14 12 -4 6 -3 8 3 5 6 -4 8 -18 5 -33 -5 -25
-3 -26 31 -22 20 2 33 0 31 -4 -3 -4 -1 -8 5 -8 5 0 11 5 13 11 3 9 9 9 25 1
17 -9 26 -8 47 9 27 21 27 43 1 32 -8 -3 -15 0 -15 6 0 6 10 11 23 12 12 0 33
2 47 3 14 1 55 3 93 4 l67 2 0 65 c0 44 -4 67 -12 70 -17 5 -561 11 -723 7z"/>
<path d="M4433 443 c9 -2 23 -2 30 0 6 3 -1 5 -18 5 -16 0 -22 -2 -12 -5z"/>
<path d="M4673 432 c1 -14 5 -18 11 -12 7 7 6 14 -1 21 -9 9 -12 7 -10 -9z"/>
</g>
</svg>
